<svg xmlns="http://www.w3.org/2000/svg" xmlns:xlink="http://www.w3.org/1999/xlink" xmlns:fi="http://pattern.flaticon.com/" x="0" y="0" width="5000" height="2500" viewBox="0 0 5000 2500"><rect x="0px" y="0px" width="100%" height="100%" opacity="1" fill="#79ff99"/><defs><g transform="matrix(0.2130831385240837 -0.07790136398919931 0.07790136398919931 0.2130831385240837 176.94378381510984 84.92994568413755)" id="L1_0"><path d="M437.677,45.419h-82.581C325.161,57.29,318.525,37.161,256,37.161s-69.161,20.129-99.097,8.258  h-82.58L63.312,252.904c6.882,81.548,57.462,125.935,97.377,142.107h190.623c39.914-16.172,90.495-60.559,97.377-142.107  L437.677,45.419z" fill="#f5dcb4"/><path d="M355.097,45.419C448.078,73.25,397.46,216.774,457.33,278.813c8.595,8.906,23.781,4.95,27.368-6.895  c4.74-15.651,9.474-40.411,8.721-75.789C492.387,147.613,512,144.517,512,144.517S487.226,28.903,412.903,28.903  C388.129,28.903,355.097,45.419,355.097,45.419z" fill="#965a50"/><path d="M169.29,260.129L169.29,260.129c-15.897,0-28.903-13.006-28.903-28.903v-16.516  c0-15.897,13.006-28.903,28.903-28.903l0,0c15.897,0,28.903,13.006,28.903,28.903v16.516  C198.194,247.124,185.187,260.129,169.29,260.129z" fill="#4b3f4e"/><path d="M169.29,185.806c-1.413,0-2.769,0.221-4.129,0.419v40.871c0,9.121,7.395,16.516,16.516,16.516  c9.122,0,16.516-7.395,16.516-16.516v-12.386C198.194,198.814,185.187,185.806,169.29,185.806z" fill="#5d5360"/><circle cx="169" cy="206" r="12" fill="#ffffff"/><path d="M342.71,260.129L342.71,260.129c-15.897,0-28.903-13.006-28.903-28.903v-16.516  c0-15.897,13.006-28.903,28.903-28.903l0,0c15.897,0,28.903,13.006,28.903,28.903v16.516  C371.613,247.124,358.606,260.129,342.71,260.129z" fill="#4b3f4e"/><path d="M342.71,185.806c-1.413,0-2.769,0.221-4.129,0.419v40.871c0,9.121,7.395,16.516,16.516,16.516  c9.122,0,16.516-7.395,16.516-16.516v-12.386C371.613,198.814,358.606,185.806,342.71,185.806z" fill="#5d5360"/><circle cx="342" cy="206" r="12" fill="#ffffff"/><path d="M457.33,278.814c8.595,8.906,23.781,4.95,27.368-6.896c2.718-8.976,5.399-21.06,7.08-36.313  c-16.234-8.092-30.092-33.91-38.617-77.669C437.677,78.452,416,34.065,355.097,45.419C448.078,73.25,397.46,216.775,457.33,278.814z  " fill="#824641"/><path d="M160.689,395.011h39.141c0,0-68.732-46.107-80.087-127.656  C97.654,108.712,139.7,61.247,176.067,49.135c-5.761,0.195-11.745-0.774-19.163-3.715H74.323L63.312,252.904  C70.194,334.452,120.774,378.839,160.689,395.011z" fill="#e7c9a5"/><path d="M156.903,45.419C63.922,73.25,114.541,216.775,54.67,278.813c-8.595,8.906-23.781,4.95-27.368-6.895  c-4.74-15.651-9.474-40.411-8.721-75.789C19.613,147.613,0,144.517,0,144.517S24.774,28.903,99.097,28.903  C123.871,28.903,156.903,45.419,156.903,45.419z" fill="#965a50"/><path d="M154.139,44.104c-8.38-3.888-34.516-15.201-55.042-15.201C24.774,28.903,0,144.517,0,144.517  s19.613,3.097,18.581,51.613c-0.014,0.648,0.005,1.231-0.005,1.872C66.097,17.715,139.119,37.773,154.139,44.104z" fill="#824641"/><ellipse cx="256px" cy="400px" rx="90px" ry="66px" fill="#bc8e78"/><path d="M214.71,400.516v41.29c0,22.804,18.486,41.29,41.29,41.29s41.29-18.486,41.29-41.29v-41.29H214.71z" fill="#ff8087"/><path d="M214.71,432.768c11.941-1.496,23.208-5.129,33.032-10.622v11.402c0,4.56,3.698,8.258,8.258,8.258  s8.258-3.698,8.258-8.258v-11.507c9.729,5.552,21.026,9.225,33.032,10.73v-32.256h-82.58V432.768z" fill="#e6646e"/><path d="M309.677,326.194H202.323c-34.206,0-61.935,20.335-61.935,45.419s27.73,45.419,61.935,45.419  c17.225,0,32.782-5.169,43.995-13.498c2.839-2.108,6.262-3.162,9.679-3.162c3.423,0,6.846,1.053,9.685,3.162  c11.213,8.329,26.77,13.498,43.995,13.498c34.206,0,61.935-20.335,61.935-45.419C371.613,346.529,343.883,326.194,309.677,326.194z" fill="#d4af91"/><path d="M256,293.161c27.365,0,49.548,14.789,49.548,33.032c0,17.594-20.824,26.858-35.853,33.708  c-8.712,3.971-18.68,3.971-27.392,0c-15.029-6.85-35.853-16.114-35.853-33.708C206.452,307.951,228.635,293.161,256,293.161z" fill="#5d5360"/><path d="M230.968,317.161c-1.155-10.393,6.166-21.507,6.166-21.507  c-18.003,4.949-30.682,16.751-30.682,30.539c0,17.593,20.824,26.857,35.853,33.708c8.711,3.97,18.68,3.97,27.392,0  c3.232-1.473,6.732-3.069,10.235-4.824C259.613,351.484,233.29,338.065,230.968,317.161z" fill="#4b3f4e"/></g><g transform="matrix(0.18871704268314807 0.07158232752135807 -0.07158232752135807 0.18871704268314807 -7.98648708141824 56.363361227646436)" id="L1_1"><path d="M444.379,3.741c10.828-8.798,27.018-1.092,27.018,12.859v222.01l-182.26-107.699L444.379,3.741z" fill="#ffc850"/><path d="M454.828,228.819l-110.973-65.574l92.462-104.241c6.465-7.288,18.511-2.716,18.511,7.027V228.819z" fill="#ebaf4b"/><path d="M67.619,3.741C56.79-5.057,40.601,2.649,40.601,16.6v222.01l182.26-107.699L67.619,3.741z" fill="#ffc850"/><path d="M57.17,228.819l110.973-65.574L75.681,59.004c-6.465-7.288-18.511-2.716-18.511,7.027  C57.17,66.031,57.17,228.819,57.17,228.819z" fill="#ebaf4b"/><ellipse cx="255px" cy="292px" rx="231px" ry="219px" fill="#ffdc64"/><path d="M289.137,429.155v16.569c0,18.302-14.836,33.138-33.138,33.138l0,0  c-18.302,0-33.138-14.836-33.138-33.138v-16.569l33.138-16.569L289.137,429.155z" fill="#ff8087"/><path d="M274.293,343.862h-36.588c-7.899,0-12.273,9.157-7.307,15.3l18.295,22.634  c3.76,4.651,10.852,4.651,14.613,0l18.295-22.634C286.566,353.019,282.193,343.862,274.293,343.862z" fill="#5d5360"/><g><path d="M479.673,437.439c-1.286,0-2.593-0.299-3.815-0.934c-50.092-26.047-128.491-41.524-129.28-41.678   c-4.49-0.874-7.419-5.226-6.545-9.717c0.878-4.494,5.186-7.427,9.717-6.545c3.301,0.643,81.515,16.076,133.754,43.239   c4.057,2.112,5.639,7.111,3.527,11.173C485.555,435.813,482.667,437.439,479.673,437.439z" fill="#e1a546"/><path d="M496.255,379.451c-0.712,0-1.436-0.093-2.156-0.287c-46.435-12.483-130.87-10.113-131.703-10.077   c-4.652,0.134-8.398-3.459-8.531-8.03c-0.138-4.575,3.459-8.394,8.03-8.531c3.56-0.113,87.736-2.476,136.509,10.635   c4.417,1.189,7.035,5.732,5.849,10.153C503.257,377.012,499.912,379.447,496.255,379.451z" fill="#e1a546"/></g><path d="M313.991,495.431c-128.112,0-231.967-98.291-231.967-219.54c0-89.035,56.034-165.634,136.518-200.081  C108.248,92.762,24.032,183.285,24.032,292.46C24.032,413.709,127.887,512,255.999,512c34.037,0,66.328-6.995,95.449-19.459  C339.25,494.416,326.748,495.431,313.991,495.431z" fill="#ffc850"/><g><path d="M32.324,437.439c-2.993,0-5.882-1.622-7.358-4.462c-2.112-4.061-0.53-9.061,3.527-11.173   c52.24-27.163,130.453-42.596,133.754-43.239c4.494-0.902,8.839,2.055,9.717,6.545c0.874,4.49-2.055,8.843-6.545,9.717   c-0.789,0.154-79.189,15.631-129.28,41.678C34.917,437.14,33.611,437.439,32.324,437.439z" fill="#e1a546"/><path d="M15.743,379.451c-3.657,0-7.002-2.439-7.997-6.137c-1.185-4.421,1.432-8.964,5.849-10.153   c48.777-13.115,132.941-10.736,136.509-10.635c4.571,0.138,8.167,3.956,8.03,8.531c-0.138,4.571-4.098,8.196-8.531,8.03   c-0.849-0.028-85.297-2.407-131.703,10.077C17.179,379.358,16.455,379.451,15.743,379.451z" fill="#e1a546"/></g><path d="M160.727,321.456L160.727,321.456c-15.948,0-28.996-13.048-28.996-28.996v-16.569  c0-15.948,13.048-28.996,28.996-28.996l0,0c15.948,0,28.996,13.048,28.996,28.996v16.569  C189.723,308.407,176.675,321.456,160.727,321.456z" fill="#4b3f4e"/><path d="M160.727,246.895c-1.418,0-2.778,0.221-4.142,0.421v41.002c0,9.151,7.418,16.569,16.569,16.569  s16.569-7.418,16.569-16.569v-12.427C189.723,259.943,176.674,246.895,160.727,246.895z" fill="#5d5360"/><circle cx="160" cy="267" r="12" fill="#ffffff"/><path d="M351.271,321.456L351.271,321.456c-15.948,0-28.996-13.048-28.996-28.996v-16.569  c0-15.948,13.048-28.996,28.996-28.996l0,0c15.948,0,28.996,13.048,28.996,28.996v16.569  C380.267,308.407,367.219,321.456,351.271,321.456z" fill="#4b3f4e"/><path d="M351.271,246.895c-1.418,0-2.778,0.221-4.142,0.421v41.002c0,9.151,7.418,16.569,16.569,16.569  s16.569-7.418,16.569-16.569v-12.427C380.267,259.943,367.219,246.895,351.271,246.895z" fill="#5d5360"/><circle cx="351" cy="267" r="12" fill="#ffffff"/><path d="M262.408,382.15l-18.295-36.215c-0.332-0.658-0.518-1.378-0.769-2.074h-5.639  c-7.899,0-12.273,9.157-7.308,15.3l18.295,22.634c3.55,4.39,9.981,4.485,13.863,0.587  C262.511,382.297,262.453,382.239,262.408,382.15z" fill="#4b3f4e"/><path d="M255.999,412.586l-33.138,16.569v16.569c0,2.629,0.383,5.154,0.961,7.606  c8.337-1.034,16.389-3.449,23.892-7.153v7.831c0,4.575,3.709,8.285,8.285,8.285c4.576,0,8.285-3.709,8.285-8.285v-7.83  c7.504,3.704,15.556,6.119,23.892,7.152c0.578-2.452,0.961-4.978,0.961-7.606v-16.569L255.999,412.586z" fill="#e6646e"/><path d="M297.422,437.439c-11.719,0-23.013-3.483-32.653-10.073c-5.162-3.527-12.374-3.527-17.544,0  c-9.636,6.59-20.93,10.073-32.649,10.073c-14.259,0-27.993-5.275-38.672-14.85c-3.406-3.058-3.689-8.297-0.635-11.703  s8.281-3.689,11.703-0.635c13.911,12.483,35.683,13.847,50.905,3.434c10.841-7.403,25.408-7.403,36.241,0  c15.226,10.408,37.001,9.041,50.913-3.43c3.402-3.05,8.636-2.775,11.699,0.639c3.054,3.406,2.767,8.645-0.639,11.699  C325.41,432.168,311.681,437.439,297.422,437.439z" fill="#ebaf4b"/></g><g transform="matrix(0.22320090169672083 -0.12130483972792427 0.12130483972792427 0.22320090169672083 112.6689695338754 236.7053389316589)" id="L1_2"><path d="m30.875 21.191406 27.820312 76.949219 61.441407-61.441406-76.945313-27.828125c-7.667968-2.769532-15.089844 4.65625-12.316406 12.320312zm0 0" fill="#ffd578"/><path d="m30.875 21.191406-6.417969 2.320313 27.820313 76.949219c.789062 2.1875 2.660156 3.835937 4.933594 4.339843 2.269531.507813 4.664062-.1875 6.3125-1.835937l61.441406-61.4375c1.644531-1.648438 2.339844-4.039063 1.835937-6.3125-.507812-2.269532-2.152343-4.144532-4.34375-4.933594l-76.945312-27.828125c-1.847657-.671875-3.765625-1.003906-5.640625-1.003906-9.085938.078125-16.335938 7.328125-16.417969 16.414062 0 1.871094.332031 3.796875 1 5.648438l6.421875-2.320313 6.421875-2.316406-.1875-1.007812c-.003906-.679688.285156-1.371094.835937-1.925782.558594-.550781 1.246094-.839844 1.925782-.835937l.992187.183593 66.851563 24.175782-46.25 46.25-24.167969-66.84375zm0 0" fill="#54596e"/><path d="m403.890625 19.875-29.199219 78.261719-61.441406-61.4375 78.269531-29.199219c7.71875-2.878906 15.25 4.652344 12.371094 12.375zm0 0" fill="#ffd578"/><path d="m403.890625 19.875-6.394531-2.386719-25.488282 68.3125-46.421874-46.417969 68.316406-25.488281 1.023437-.199219c.675781-.003906 1.367188.285157 1.925781.839844.550782.554688.839844 1.246094.839844 1.921875l-.199218 1.042969 12.796874 4.75c.707032-1.898438 1.058594-3.871094 1.054688-5.792969-.082031-9.089843-7.328125-16.332031-16.417969-16.4140622-1.929687-.0039063-3.902343.3515622-5.792969 1.0585932l-78.265624 29.199219c-2.183594.816407-3.789063 2.671875-4.285157 4.945313-.496093 2.273437.199219 4.632812 1.84375 6.277344l61.4375 61.441406c1.648438 1.644531 4.003907 2.339844 6.28125 1.84375 2.273438-.496094 4.132813-2.105469 4.945313-4.285156l29.195312-78.261719zm0 0" fill="#54596e"/><path d="m264.628906 22.375h-99.171875c-63.683593 0-117.003906 44.585938-123.34375 103.136719l-17.910156 114.125c-4.453125 41.125 40.101563 76.289062 96.652344 76.289062l93.960937-9.082031 94.414063 9.082031c56.554687 0 101.105469-35.164062 96.65625-76.289062l-17.917969-114.125c-6.332031-58.550781-59.652344-103.136719-123.339844-103.136719" fill="#f4a14e"/><path d="m264.628906 22.375v-6.824219h-99.171875c-33.441406 0-64.238281 11.699219-87.558593 31.199219-23.3125 19.480469-39.203126 46.875-42.566407 78.027344l6.785157.734375-6.742188-1.0625-17.914062 114.128906-.042969.324219c-.234375 2.140625-.347657 4.273437-.347657 6.394531-.007812 10.933594 3.066407 21.402344 8.480469 30.753906 8.140625 14.042969 21.433594 25.667969 37.894531 33.832031 16.46875 8.152344 36.167969 12.863282 57.410157 12.863282l.660156-.03125 93.308594-9.011719 93.753906 9.011719.652344.03125c28.320312-.007813 53.902343-8.351563 72.742187-22.140625 9.414063-6.902344 17.144532-15.191407 22.5625-24.558594 5.417969-9.351563 8.488282-19.816406 8.480469-30.75 0-2.121094-.117187-4.257813-.34375-6.398437l-.046875-.320313-17.910156-114.128906-6.746094 1.058593 6.789062-.734374c-3.367187-31.152344-19.253906-58.546876-42.570312-78.023438-23.316406-19.5-54.113281-31.199219-87.558594-31.199219v13.652344c30.246094 0 57.953125 10.589844 78.800782 28.019531 20.847656 17.449219 34.785156 41.625 37.753906 69.019532l.042968.324218 17.914063 114.125 6.746094-1.058594-6.789063.738282c.175782 1.652344.265625 3.300781.265625 4.925781-.003906 8.386719-2.3125 16.40625-6.648437 23.917969-6.488282 11.25-17.664063 21.269531-32.132813 28.429687-14.453125 7.164063-32.136719 11.453125-51.351562 11.449219v6.832031l.652343-6.796875-94.414062-9.082031h-1.308594l-93.960937 9.082031.65625 6.796875v-6.832031c-25.617188.015625-48.511719-7.636719-64.667969-19.503906-8.085938-5.925782-14.484375-12.875-18.820312-20.375-4.332032-7.507813-6.640626-15.53125-6.644532-23.917969 0-1.625.085938-3.265625.265625-4.925781l-6.785156-.738282 6.742187 1.058594 17.914063-114.125.042969-.324218c2.96875-27.394532 16.902344-51.574219 37.753906-69.019532 20.84375-17.429687 48.554688-28.019531 78.796875-28.019531h99.175781z" fill="#54596e"/><path d="m398.742188 238.15625c-14.507813 25.46875-48.882813 43.632812-89.511719 43.632812h-188.375c-40.625 0-75.003907-18.164062-89.507813-43.632812l-.378906 2.410156c-.164062 1.59375-.246094 3.167969-.246094 4.730469.003906 8.386719 2.316406 16.40625 6.648438 23.917969 4.332031 7.503906 10.730468 14.453125 18.816406 20.375 16.09375 11.820312 38.863281 19.453125 64.355469 19.503906l93.617187-9.046875h1.308594l94.074219 9.046875c19.097656-.039062 36.667969-4.324219 51.042969-11.449219 14.464843-7.160156 25.640624-17.179687 32.132812-28.429687 4.335938-7.507813 6.644531-15.53125 6.644531-23.917969 0-1.589844-.082031-3.195313-.253906-4.808594z" fill="#e49a51"/><path d="m403.816406 226.453125c-1.230468 4.035156-2.9375 7.945313-5.074218 11.699219l.367187 2.335937c.167969 1.609375.253906 3.21875.253906 4.808594-.003906 8.382813-2.3125 16.40625-6.648437 23.917969-6.488282 11.25-17.664063 21.269531-32.132813 28.425781-14.375 7.128906-31.945312 11.410156-51.039062 11.453125l-94.074219-9.046875h-1.308594l-93.617187 9.046875c-25.492188-.050781-48.261719-7.6875-64.355469-19.503906-8.085938-5.925782-14.484375-12.875-18.820312-20.375-4.332032-7.511719-6.640626-15.535156-6.644532-23.917969 0-1.566406.082032-3.140625.246094-4.734375l.375-2.40625c-2.136719-3.753906-3.84375-7.667969-5.074219-11.703125l-2.070312 13.183594c-4.453125 41.125 40.101562 76.289062 96.652343 76.289062l93.964844-9.082031 94.410156 9.082031c56.554688 0 101.105469-35.164062 96.65625-76.289062z" fill="#54596e"/><path d="m310.617188 281.789062v31.714844c0 18.027344-17.105469 31.652344-36.347657 30.859375-5.910156-.246093-11.824219.34375-17.3125 2.546875l-29.710937 11.910156c-7.835938 3.140626-16.570313 3.140626-24.402344 0l-29.710938-11.910156c-5.488281-2.203125-11.402343-2.792968-17.316406-2.546875-19.238281.792969-36.347656-12.832031-36.347656-30.859375v-31.714844" fill="#f4a14e"/><path d="m303.792969 281.789062v31.714844c-.015625 6.613282-2.984375 12.414063-8.058594 16.863282-5.070313 4.417968-12.214844 7.207031-19.867187 7.199218l-1.363282-.027344h.0625c-.90625-.035156-1.816406-.058593-2.730468-.054687-5.707032 0-11.65625.773437-17.425782 3.089844l-29.707031 11.910156c-3.101563 1.246094-6.378906 1.863281-9.660156 1.867187-3.277344-.003906-6.554688-.625-9.660157-1.867187l-29.710937-11.910156c-5.761719-2.308594-11.707031-3.089844-17.417969-3.089844-.894531 0-1.816406.015625-2.757812.058594l.046875-.003907-1.324219.027344c-7.648438.007813-14.792969-2.785156-19.863281-7.199218-5.074219-4.453126-8.042969-10.253907-8.058594-16.863282v-31.714844c0-3.773437-3.054687-6.828124-6.824219-6.828124-3.769531 0-6.828125 3.054687-6.828125 6.828124v31.714844c-.011719 10.910156 5.101563 20.554688 12.753907 27.167969 7.660156 6.644531 17.890624 10.539063 28.820312 10.546875.601562 0 1.226562-.007812 1.875-.035156l.046875-.003906c.679687-.03125 1.382813-.046876 2.109375-.046876 4.476562 0 8.632812.621094 12.339844 2.109376l29.710937 11.914062c4.730469 1.894531 9.734375 2.84375 14.742188 2.84375 5.003906 0 10.011719-.949219 14.738281-2.84375l29.714844-11.914062c3.703125-1.488282 7.855468-2.109376 12.339844-2.109376.703124 0 1.421874.019532 2.136718.050782h.0625c.589844.019531 1.199219.035156 1.832032.035156 10.929687-.007812 21.15625-3.898438 28.820312-10.546875 7.648438-6.613281 12.769531-16.253906 12.753906-27.167969v-31.714844c0-3.773437-3.054687-6.828124-6.828125-6.828124-3.765625 0-6.820312 3.054687-6.820312 6.828124zm0 0" fill="#54596e"/><path d="m119.464844 242.734375c0 27.464844 42.792968 25.363281 95.578125 25.363281 52.78125 0 95.574219 2.101563 95.574219-25.363281s-42.792969-49.730469-95.574219-49.730469c-52.785157.003906-95.578125 22.265625-95.578125 49.730469zm0 0" fill="#ffd578"/><g fill="#54596e"><path d="m215.042969 274.601562 41.808593-27.625c5.855469-3.867187 3.113282-12.976562-3.898437-12.976562h-75.820313c-7.015624 0-9.75 9.109375-3.902343 12.976562zm0 0"/><path d="m180.910156 148.667969c0 5.65625-4.582031 10.242187-10.238281 10.242187s-10.242187-4.585937-10.242187-10.242187c0-5.652344 4.585937-10.238281 10.242187-10.238281s10.238281 4.585937 10.238281 10.238281zm0 0"/><path d="m269.660156 148.667969c0 5.65625-4.585937 10.242187-10.242187 10.242187s-10.238281-4.585937-10.238281-10.242187c0-5.652344 4.582031-10.238281 10.238281-10.238281s10.242187 4.585937 10.242187 10.238281zm0 0"/><path d="m215.042969 268.136719h6.828125c0-7.539063 0-13.640625 0-13.652344 0-1.800781-.726563-3.558594-1.996094-4.828125-1.273438-1.273438-3.03125-2-4.828125-2s-3.558594.726562-4.828125 2c-1.273438 1.269531-2 3.027344-2 4.828125v13.652344 27.304687c0 1.796875.730469 3.554688 2 4.828125 1.269531 1.269531 3.027344 1.996094 4.828125 1.996094 1.796875 0 3.554687-.726563 4.828125-1.996094 1.269531-1.273437 1.996094-3.03125 1.996094-4.828125 0 0 0-19.765625 0-27.304687h-13.652344v27.304687c0 1.796875.726562 3.554688 1.996094 4.828125 1.273437 1.269531 3.03125 1.996094 4.828125 1.996094 1.800781 0 3.558593-.726563 4.828125-1.996094 1.273437-1.273437 2-3.03125 2-4.828125 0 0 0-19.765625 0-27.304687 0-7.539063 0-13.640625 0-13.652344 0-1.800781-.730469-3.558594-2-4.828125-1.269532-1.273438-3.027344-2-4.828125-2-1.796875 0-3.554688.726562-4.828125 2-1.269532 1.269531-1.996094 3.027344-1.996094 4.828125v13.652344zm0 0"/><path d="m99.011719 244.402344c-.242188-.074219-14.601563-4.617188-36.722657-4.621094-16.589843 0-37.558593 2.558594-60.132812 11.527344-1.753906.695312-2.609375 2.679687-1.914062 4.433594.695312 1.753906 2.679687 2.609374 4.433593 1.914062 21.636719-8.597656 41.71875-11.046875 57.613281-11.046875 10.589844 0 19.316407 1.089844 25.359376 2.175781 3.023437.542969 5.375 1.082032 6.960937 1.480469.792969.199219 1.390625.367187 1.78125.476563l.554687.164062c1.792969.570312 3.714844-.421875 4.285157-2.21875.570312-1.792969-.421875-3.710938-2.21875-4.285156zm0 0"/><path d="m98.324219 261.375c-.074219.015625-17.359375 3.441406-35.855469 9.488281-9.253906 3.027344-18.808594 6.703125-26.761719 11.019531-7.914062 4.363282-14.417969 9.183594-17.230469 15.652344-.730468 1.738282.085938 3.738282 1.824219 4.46875 1.738281.730469 3.742188-.089844 4.472657-1.824218 1.480468-3.773438 6.800781-8.339844 14.195312-12.296876 11.046875-6.015624 26.3125-11.035156 38.722656-14.472656 6.207032-1.722656 11.714844-3.0625 15.660156-3.964844 3.945313-.90625 6.296876-1.371093 6.304688-1.375 1.847656-.371093 3.050781-2.164062 2.683594-4.011718-.371094-1.851563-2.164063-3.050782-4.015625-2.683594zm0 0"/><path d="m333.144531 250.90625.550781-.164062c2.753907-.789063 15.566407-4.136719 34.101563-4.136719 15.894531.003906 35.976563 2.453125 57.613281 11.046875 1.75.695312 3.734375-.160156 4.433594-1.910156.695312-1.75-.160156-3.734376-1.914062-4.433594-22.574219-8.96875-43.542969-11.527344-60.132813-11.527344-22.121094 0-36.476563 4.542969-36.722656 4.621094-1.796875.570312-2.789063 2.488281-2.21875 4.285156.574219 1.796875 2.492187 2.792969 4.289062 2.21875zm0 0"/><path d="m330.433594 268.070312c.003906 0 1.035156.207032 2.910156.613282 6.554688 1.425781 23.171875 5.304687 38.925781 10.992187 7.871094 2.839844 15.523438 6.140625 21.515625 9.71875 6.023438 3.550781 10.21875 7.492188 11.53125 10.777344.730469 1.738281 2.730469 2.554687 4.46875 1.828125 1.738282-.730469 2.558594-2.730469 1.828125-4.46875-2.8125-6.46875-9.316406-11.289062-17.230469-15.652344-11.921874-6.464844-27.480468-11.523437-40.15625-15.046875-12.667968-3.515625-22.40625-5.449219-22.460937-5.460937-1.851563-.367188-3.648437.835937-4.015625 2.683594-.367188 1.851562.832031 3.648437 2.683594 4.015624zm0 0"/><path d="m146.777344 293.734375c.003906 20.738281 16.808594 37.542969 37.546875 37.546875 20.738281-.003906 37.542969-16.808594 37.546875-37.546875 0-3.769531-3.054688-6.824219-6.828125-6.824219-3.769531 0-6.824219 3.054688-6.824219 6.824219-.023438 13.195313-10.703125 23.871094-23.894531 23.894531-13.195313-.023437-23.867188-10.699218-23.894531-23.894531 0-3.769531-3.054688-6.824219-6.824219-6.824219-3.773438 0-6.828125 3.054688-6.828125 6.824219zm0 0"/><path d="m208.21875 293.734375c.003906 20.738281 16.808594 37.542969 37.546875 37.546875 20.738281-.003906 37.539063-16.808594 37.546875-37.546875 0-3.769531-3.058594-6.824219-6.828125-6.824219s-6.824219 3.054688-6.824219 6.824219c-.027344 13.195313-10.703125 23.871094-23.894531 23.894531-13.195313-.023437-23.871094-10.699218-23.894531-23.894531 0-3.769531-3.054688-6.824219-6.828125-6.824219-3.769531 0-6.824219 3.054688-6.824219 6.824219zm0 0"/><path d="m166.730469 89.234375c-5.425781 1.609375-11.128907-1.484375-12.734375-6.90625l-16.503906-55.628906 19.632812-5.828125 16.507812 55.632812c1.605469 5.417969-1.480468 11.121094-6.902343 12.730469zm0 0"/><path d="m254.042969 89.234375c5.429687 1.609375 11.121093-1.484375 12.734375-6.90625l16.507812-55.628906-19.632812-5.828125-16.507813 55.632812c-1.613281 5.417969 1.480469 11.121094 6.898438 12.730469zm0 0"/><path d="m107.195312 150.035156c-1.425781 3.9375-5.773437 5.976563-9.707031 4.554688l-57.070312-20.640625 5.160156-14.257813 57.066406 20.636719c3.941407 1.425781 5.972657 5.769531 4.550781 9.707031zm0 0"/><path d="m86.71875 170.515625c-1.429688 3.9375-5.773438 5.976563-9.710938 4.554687l-43.417968-6.988281 5.160156-14.257812 43.414062 6.984375c3.941407 1.421875 5.972657 5.769531 4.554688 9.707031zm0 0"/><path d="m320.769531 150.035156c1.421875 3.9375 5.769531 5.976563 9.710938 4.554688l57.066406-20.640625-5.15625-14.257813-57.070313 20.636719c-3.9375 1.425781-5.976562 5.769531-4.550781 9.707031zm0 0"/><path d="m341.25 170.515625c1.421875 3.9375 5.769531 5.976563 9.707031 4.554687l43.414063-6.988281-5.152344-14.257812-43.417969 6.984375c-3.9375 1.421875-5.976562 5.769531-4.550781 9.707031zm0 0"/><path d="m211.632812 111.121094c-5.652343 0-10.242187-4.582032-10.242187-10.238282v-78.507812h20.480469v78.507812c0 5.65625-4.585938 10.238282-10.238282 10.238282zm0 0"/></g></g><g transform="matrix(0.20321275365305352 -0.16116874226099237 0.16116874226099237 0.20321275365305352 -5.990535821151894 248.99174347901123)" id="L1_3"><path d="m321.886719 198.4375c3.773437-13.160156 5.835937-27.050781 5.835937-41.425781 0-82.949219-67.242187-150.1875-150.1875-150.1875-82.949218 0-150.1875 67.238281-150.1875 150.1875 0 14.375 2.0625 28.265625 5.832032 41.425781-16.640626 13.699219-26.3125 29.917969-26.3125 47.320312 0 49.011719 76.410156 88.746094 170.667968 88.746094 94.257813 0 170.667969-39.734375 170.667969-88.746094 0-17.402343-9.671875-33.621093-26.316406-47.320312" fill="#ffffff"/><path d="m321.886719 198.4375 6.5625 1.878906c3.941406-13.75 6.097656-28.273437 6.097656-43.304687-.003906-86.71875-70.292969-157.011719-157.011719-157.011719s-157.011718 70.292969-157.011718 157.011719c0 15.03125 2.15625 29.554687 6.097656 43.304687l6.558594-1.875-4.335938-5.273437c-8.835938 7.277343-15.996094 15.347656-21 24.179687-5.003906 8.8125-7.8125 18.433594-7.8007812 28.410156-.0117188 14.070313 5.5390622 27.328126 14.9414062 38.851563 14.140625 17.320313 36.808594 31.292969 64.863281 41.179687 28.070313 9.855469 61.617188 15.539063 97.6875 15.539063 48.09375-.015625 91.683594-10.070313 123.828125-26.761719 16.066407-8.359375 29.308594-18.398437 38.722657-29.957031 9.402343-11.523437 14.953124-24.78125 14.941406-38.851563.007812-9.976562-2.800782-19.597656-7.800782-28.410156-5.007812-8.832031-12.164062-16.902344-21-24.179687l-4.339843 5.269531 6.5625 1.878906-6.5625-1.878906-4.339844 5.269531c7.808594 6.425781 13.804687 13.308594 17.796875 20.367188 3.996094 7.070312 6.023438 14.257812 6.03125 21.683593-.011719 10.4375-4.007812 20.523438-11.878906 30.238282-11.773438 14.53125-32.382813 27.660156-58.804688 36.910156-26.40625 9.28125-58.535156 14.777344-93.15625 14.773438-46.164062.015624-87.902344-9.792969-117.53125-25.226563-14.816406-7.695313-26.566406-16.785156-34.429687-26.457031-7.871094-9.714844-11.867188-19.800782-11.882813-30.238282.011719-7.425781 2.039063-14.613281 6.03125-21.683593 3.992188-7.058594 9.992188-13.941407 17.800782-20.367188 2.09375-1.726562 2.972656-4.535156 2.21875-7.148437-3.597657-12.578125-5.566407-25.824219-5.570313-39.546875.007813-39.609375 16.035156-75.40625 41.992187-101.371094 25.964844-25.953125 61.757813-41.984375 101.371094-41.988281 39.609375.003906 75.402344 16.035156 101.367188 41.988281 25.957031 25.964844 41.988281 61.761719 41.996094 101.371094-.003907 13.722656-1.96875 26.96875-5.574219 39.546875-.75 2.613281.125 5.421875 2.222656 7.148437z" fill="#54596e"/><path d="m14.796875 236.515625c-.652344 2.726563-1.019531 5.476563-1.089844 8.253906v.003907c-.003906.101562-.003906.203124-.007812.308593v.054688c0 .089843-.003907.179687-.003907.273437v.054688.292968c.011719 10.433594 4.007813 20.523438 11.882813 30.234376 7.859375 9.675781 19.609375 18.765624 34.429687 26.457031 29.601563 15.421875 71.289063 25.226562 117.40625 25.226562h.125c34.621094.003907 66.75-5.488281 93.15625-14.769531 26.417969-9.253906 47.027344-22.378906 58.800782-36.914062 7.871094-9.710938 11.871094-19.800782 11.882812-30.234376 0-.097656 0-.195312-.003906-.289062 0-.019531 0-.039062 0-.058594 0-.09375 0-.183594 0-.277344 0-.015624 0-.035156 0-.050781-.054688-2.886719-.421875-5.738281-1.097656-8.570312-12.554688 15.609375-32.128906 28.46875-56.203125 38.152343-29.738281 11.90625-66.582031 18.867188-106.535157 18.878907-39.957031-.007813-76.800781-6.972657-106.542968-18.878907-24.074219-9.683593-43.644532-22.539062-56.199219-38.148437" fill="#dddee2"/><path d="m341.375 245.410156v.058594c0-.019531 0-.039062 0-.058594m-327.679688 0v.058594c0-.019531 0-.039062 0-.058594m327.675782-.324218v.050781c0-.019531 0-.035157 0-.050781m-327.671875-.003907v.054688c0-.019531 0-.039063 0-.054688m.007812-.3125v.003907s0 0 0-.003907" fill="#54596e"/><path d="m341.375 245.46875v.289062c0-.097656 0-.191406 0-.289062m-327.679688 0c0 .097656-.003906.191406-.003906.289062 0-.097656.003906-.191406.003906-.289062m.003907-.332031c0 .09375-.003907.183593-.003907.273437 0-.089844.003907-.183594.003907-.273437m327.671875 0c0 .089843.003906.183593.003906.273437 0-.089844-.003906-.183594-.003906-.273437m-327.664063-.363281c-.003906.101562-.003906.203124-.007812.308593.003906-.105469.003906-.207031.007812-.308593m320.3125-22.917969c-9.601562 15.378906-28.941406 29.734375-55.023437 40.136719-27.828125 11.160156-63.105469 17.90625-101.457032 17.902343-.019531 0-.035156 0-.050781 0-38.335937 0-73.597656-6.75-101.414062-17.902343-26.082031-10.402344-45.421875-24.757813-55.023438-40.136719-.464843.738281-.90625 1.476562-1.324219 2.21875-3.816406 6.757812-5.839843 13.621093-6.019531 20.695312.074219-2.777343.441407-5.527343 1.089844-8.253906 12.554687 15.609375 32.125 28.464844 56.199219 38.148437 29.742187 11.90625 66.585937 18.871094 106.542968 18.882813 39.953126-.011719 76.796876-6.976563 106.535157-18.882813 24.074219-9.683593 43.644531-22.539062 56.203125-38.148437.675781 2.828125 1.042968 5.683594 1.097656 8.570313-.128906-7.1875-2.152344-14.15625-6.027344-21.011719-.421875-.742188-.863281-1.480469-1.328125-2.21875" fill="#dddee2"/><g fill="#54596e"><path d="m341.875 215.074219c-2.503906 0-4.828125 1.386719-6.011719 3.59375-.566406 1.066406-1.183593 2.128906-1.84375 3.1875.464844.738281.90625 1.476562 1.324219 2.21875 3.875 6.855469 5.898438 13.824219 6.027344 21.011719v.050781c0 .089843.003906.183593.003906.273437v.058594.289062c-.011719 10.4375-4.007812 20.523438-11.882812 30.238282-11.773438 14.53125-32.382813 27.660156-58.800782 36.910156-26.40625 9.28125-58.535156 14.777344-93.15625 14.773438-.039062 0-.085937 0-.125 0-46.117187 0-87.804687-9.808594-117.40625-25.226563-14.820312-7.695313-26.570312-16.785156-34.429687-26.457031-7.871094-9.714844-11.871094-19.800782-11.882813-30.238282 0-.097656 0-.191406 0-.289062 0-.019531 0-.039062 0-.058594 0-.089844.003906-.179687.003906-.273437 0-.019531 0-.035157 0-.054688.003907-.101562.003907-.203125.007813-.308593.179687-7.078126 2.199219-13.941407 6.019531-20.699219.417969-.742188.859375-1.480469 1.324219-2.21875-.660156-1.054688-1.277344-2.117188-1.84375-3.183594-1.183594-2.207031-3.507813-3.59375-6.011719-3.59375s-4.828125 1.386719-6.011718 3.59375c-4.535157 8.421875-7.1445318 17.566406-7.1406255 27.089844-.0117187 14.066406 5.5390625 27.324219 14.9414065 38.847656 14.140625 17.320313 36.808593 31.296875 64.867187 41.183594 28.070313 9.855469 61.617188 15.535156 97.683594 15.539062 48.09375-.019531 91.6875-10.074219 123.832031-26.761719 16.0625-8.363281 29.304688-18.402343 38.71875-29.960937 9.402344-11.523437 14.953125-24.78125 14.941407-38.847656.007812-9.523438-2.605469-18.667969-7.136719-27.089844-1.183594-2.207031-3.507813-3.597656-6.011719-3.597656"/><path d="m129.75 109.226562c0 7.539063-6.113281 13.652344-13.65625 13.652344-7.539062 0-13.652344-6.113281-13.652344-13.652344 0-7.542968 6.113282-13.65625 13.652344-13.65625 7.542969 0 13.65625 6.113282 13.65625 13.65625zm0 0"/><path d="m252.628906 109.226562c0 7.539063-6.113281 13.652344-13.652344 13.652344-7.542968 0-13.65625-6.113281-13.65625-13.652344 0-7.542968 6.113282-13.65625 13.65625-13.65625 7.539063 0 13.652344 6.113282 13.652344 13.65625zm0 0"/></g><path d="m286.492188 369.402344-43.644532-191.910156c0-15.082032-14.617187-27.308594-32.65625-27.308594-18.039062 0-32.65625 12.226562-32.65625 27.308594 0-15.082032-14.621094-27.308594-32.65625-27.308594-18.039062 0-32.65625 12.226562-32.65625 27.308594l-43.644531 191.910156c-2.851563 21.441406 17.222656 40.195312 43.027344 40.195312l65.929687 13.652344 65.929688-13.652344c25.804687 0 45.878906-18.753906 43.027344-40.195312zm0 0" fill="#ffd578"/><path d="m286.492188 369.402344 6.65625-1.515625-43.644532-191.910157-6.65625 1.515626h6.828125c.007813-9.808594-4.804687-18.554688-12.011719-24.546876-7.222656-6.027343-16.90625-9.582031-27.46875-9.585937-10.566406.003906-20.25 3.558594-27.472656 9.585937-7.207031 5.992188-12.019531 14.742188-12.011718 24.546876 0 1.796874.726562 3.554687 2 4.824218 1.269531 1.273438 3.027343 2 4.824218 2s3.558594-.730468 4.828125-2c1.269531-1.269531 2-3.027344 2-4.824218.007813-9.808594-4.804687-18.554688-12.011719-24.546876-7.222656-6.027343-16.90625-9.582031-27.46875-9.585937-10.566406.003906-20.25 3.558594-27.472656 9.585937-7.207031 5.992188-12.019531 14.742188-12.011718 24.546876h6.824218l-6.65625-1.515626-43.644531 191.910157-.109375.613281c-.222656 1.664062-.332031 3.316406-.332031 4.960938-.003907 12.113281 5.921875 23.042968 15.019531 30.675781 9.109375 7.664062 21.472656 12.28125 35.105469 12.285156v-6.824219l-1.386719 6.683594 65.933594 13.652344c.933594.195312 1.832031.195312 2.765625 0l65.929687-13.652344-1.382812-6.683594v6.824219c13.632812-.003906 25.996094-4.621094 35.105468-12.285156 9.097657-7.632813 15.023438-18.5625 15.019532-30.675781 0-1.640626-.109375-3.296876-.332032-4.960938l-.109374-.613281-6.65625 1.515625-6.765626.898437c.140626 1.066407.207032 2.121094.207032 3.160157-.003906 7.578124-3.644532 14.71875-10.160156 20.234374-6.496094 5.476563-15.78125 9.082032-26.308594 9.078126l-1.382813.140624-64.546875 13.367188-64.542968-13.367188-1.386719-.140624c-10.527344.003906-19.8125-3.597657-26.3125-9.078126-6.511719-5.515624-10.152344-12.65625-10.15625-20.234374 0-1.039063.066406-2.089844.210937-3.160157l-6.769531-.898437 6.65625 1.515625 43.644531-191.910157.167969-1.515624c.007813-5.273438 2.507813-10.179688 7.117187-14.070313 4.597657-3.855469 11.238282-6.414063 18.714844-6.410156 7.472656-.003907 14.117188 2.554687 18.710938 6.410156 4.613281 3.890625 7.109375 8.796875 7.117187 14.070313 0 1.796874.726563 3.554687 2 4.828124 1.269531 1.269532 3.027344 1.996094 4.824219 1.996094 1.800781 0 3.558594-.726562 4.828125-1.996094 1.273437-1.273437 2-3.03125 2-4.828124.007813-5.273438 2.503906-10.179688 7.117187-14.070313 4.597657-3.855469 11.238282-6.414063 18.714844-6.410156 7.472656-.003907 14.117188 2.554687 18.710938 6.410156 4.613281 3.890625 7.109375 8.796875 7.117187 14.070313l.167969 1.515624 43.644531 191.910157 6.660157-1.515625-6.765626.898437zm0 0" fill="#54596e"/><path d="m217.695312 173.488281c-4.710937-3.128906-12.757812.699219-17.972656 8.550781-5.214844 7.851563-5.625 16.753907-.914062 19.882813 4.710937 3.128906 12.757812-.699219 17.972656-8.550781 5.214844-7.851563 5.625-16.75.914062-19.882813zm0 0" fill="#54596e"/><path d="m155.34375 182.085938c-5.214844-7.851563-13.261719-11.679688-17.972656-8.550782-4.710938 3.132813-4.300782 12.03125.914062 19.882813 5.214844 7.851562 13.261719 11.679687 17.972656 8.550781 4.710938-3.128906 4.300782-12.03125-.914062-19.882812zm0 0" fill="#54596e"/></g><g transform="matrix(0.2047861777426444 -0.16223320540411065 0.16223320540411065 0.2047861777426444 -43.75733503926877 320.32210643128263)" id="L1_4"><path d="m223.601562 156.359375-13.121093-54.507813h-.761719c1.964844-5.4375 3.589844-11.164062 4.613281-17.265624 4.777344-28.5-2.925781-62.40625-18.078125-77.757813-19.085937 8.070313-35.023437 36.945313-39.804687 65.449219-1.707031 10.207031-1.761719 23.621094-.503907 32.988281h-80.523437c1.261719-9.367187 1.210937-22.78125-.5-32.988281-4.777344-28.5-20.722656-57.378906-39.800781-65.449219-15.15625 15.351563-22.863282 49.257813-18.082032 77.757813 1.121094 6.695312 2.90625 12.992187 5.15625 18.875l-12.730468 52.898437c-3.347656 22.617187-2.800782 45.75 1.617187 68.128906l17.558594 123.125h175.78125l17.558594-123.125c4.417969-22.382812 4.96875-45.511719 1.621093-68.128906zm0 0" fill="#bfad88"/><path d="m223.601562 156.359375 6.636719-1.597656-13.117187-54.507813c-.742188-3.066406-3.484375-5.226562-6.640625-5.226562h-.761719v6.824218l6.417969 2.324219c2.078125-5.746093 3.824219-11.882812 4.929687-18.460937 1.019532-6.09375 1.5-12.359375 1.5-18.632813-.003906-12.59375-1.929687-25.214843-5.515625-36.503906-3.609375-11.28125-8.808593-21.28125-15.941406-28.542969-1.96875-1.9960935-4.9375-2.585937-7.515625-1.492187-11.597656 4.980469-21.011719 15.316406-28.484375 27.875-7.4375 12.605469-12.851563 27.632812-15.394531 42.730469-1.015625 6.089843-1.464844 12.933593-1.46875 19.570312 0 5.496094.308594 10.820312.933594 15.457031l6.765624-.910156v-6.824219h-80.527343v6.824219l6.765625.910156c.625-4.640625.933594-9.972656.933594-15.472656-.003907-6.632813-.449219-13.46875-1.464844-19.554687-2.542969-15.097657-7.957032-30.125-15.394532-42.730469-7.472656-12.558594-16.886718-22.894531-28.484374-27.875-2.582032-1.089844-5.546876-.5039065-7.515626 1.492187-7.132812 7.265625-12.332031 17.261719-15.945312 28.542969-3.582031 11.289063-5.507812 23.90625-5.515625 36.5 0 6.273437.484375 12.542969 1.503906 18.640625 1.199219 7.167969 3.113281 13.90625 5.515625 20.183594l6.375-2.441406-6.636718-1.597657-12.730469 52.902344-.117188.597656c-1.492187 10.0625-2.234375 20.222657-2.234375 30.378907 0 13.441406 1.304688 26.878906 3.90625 40.070312l6.699219-1.320312-6.757813.960937 17.558594 123.128906c.480469 3.363281 3.359375 5.859375 6.757813 5.859375h175.78125c3.398437 0 6.277343-2.496094 6.757812-5.859375l17.558594-123.128906-6.757813-.960937 6.695313 1.320312c2.605469-13.195312 3.90625-26.632812 3.90625-40.078125 0-10.152344-.742187-20.308594-2.230469-30.371094l-.113281-.597656-6.632813 1.59375-6.753906 1c1.394532 9.394531 2.085938 18.882813 2.085938 28.371094 0 12.5625-1.21875 25.121093-3.648438 37.433593l-.0625.359376-16.722656 117.261718h-163.9375l-16.722656-117.261718-.0625-.359376c-2.429688-12.3125-3.648438-24.863281-3.648438-37.425781 0-9.488281.695313-18.980469 2.089844-28.378906l-6.753906-1 6.636718 1.597656 12.730469-52.898437c.320313-1.328125.226563-2.761719-.261719-4.035156-2.101562-5.492188-3.761718-11.347657-4.800781-17.5625-.882812-5.28125-1.316406-10.808594-1.316406-16.382813-.003906-11.1875 1.746094-22.546875 4.875-32.363281 3.101563-9.828125 7.648437-18.0625 12.644531-23.089844l-4.855468-4.792969-2.660157 6.285157c7.484375 3.09375 15.585938 11.226562 22.046875 22.25 6.5 10.976562 11.445313 24.636718 13.683594 38.042968.855469 5.066406 1.28125 11.304688 1.28125 17.292969 0 4.96875-.292969 9.796875-.8125 13.65625-.261719 1.957031.324219 3.917969 1.625 5.402344 1.300781 1.488281 3.164062 2.332031 5.140625 2.332031h80.523437c1.976563 0 3.839844-.84375 5.140626-2.332031 1.296874-1.484375 1.890624-3.445313 1.625-5.402344-.519532-3.851563-.8125-8.675781-.8125-13.636719 0-5.996094.429687-12.238281 1.285156-17.316406 2.234375-13.402344 7.179687-27.0625 13.679687-38.039062 6.464844-11.023438 14.5625-19.15625 22.046875-22.25l-2.660156-6.285157-4.855469 4.792969c4.996094 5.023438 9.542969 13.265625 12.648438 23.089844 3.125 9.816406 4.878906 21.183594 4.871093 32.367187 0 5.574219-.429687 11.101563-1.3125 16.375-.945312 5.625-2.449218 10.949219-4.304687 16.074219-.753906 2.082031-.441406 4.429688.832031 6.242188 1.269532 1.8125 3.375 2.90625 5.585938 2.90625h.765625v-6.828126l-6.636719 1.597657 13.121094 54.507812 6.636718-1.597656-6.753906 1zm0 0" fill="#54596e"/><path d="m224.625 346.855469c0-35.816407-48.394531-50.441407-108.089844-50.441407-59.699218 0-108.089844 14.621094-108.089844 50.441407 0 35.816406 48.390626 79.265625 108.089844 79.265625 59.695313 0 108.089844-43.449219 108.089844-79.265625zm0 0" fill="#999999"/><path d="m224.625 346.855469h6.824219c.042969-10.507813-3.699219-19.960938-10.128907-27.425781-9.667968-11.242188-24.636718-18.421876-42.644531-23.109376-18.042969-4.660156-39.335937-6.730468-62.144531-6.734374-30.417969.027343-58.113281 3.644531-79.050781 12.3125-10.460938 4.355468-19.316407 10.027343-25.738281 17.53125-6.429688 7.464843-10.167969 16.917968-10.128907 27.425781.011719 10.507812 3.511719 21.078125 9.46875 31.007812 8.964844 14.898438 23.519531 28.53125 41.714844 38.597657 18.195313 10.042968 40.097656 16.480468 63.734375 16.484374 31.523438-.015624 59.921875-11.417968 80.640625-27.652343 10.363281-8.132813 18.835937-17.492188 24.804687-27.425781 5.957032-9.933594 9.460938-20.503907 9.46875-31.011719h-13.648437c.011719 7.402343-2.539063 15.695312-7.519531 23.980469-7.445313 12.4375-20.300782 24.683593-36.609375 33.671874-16.304688 9.007813-35.996094 14.789063-57.132813 14.789063-28.171875.011719-53.816406-10.304687-72.21875-24.75-9.199218-7.207031-16.558594-15.425781-21.523437-23.710937-4.984375-8.285157-7.53125-16.578126-7.519531-23.980469.039062-7.40625 2.347656-13.210938 6.859374-18.558594 6.734376-7.984375 19.179688-14.527344 35.675782-18.757813 16.460937-4.261718 36.761718-6.300781 58.726562-6.296874 29.28125-.027344 55.628906 3.667968 73.808594 11.265624 9.101562 3.777344 16.074219 8.476563 20.59375 13.789063 4.511719 5.347656 6.816406 11.152344 6.859375 18.558594zm0 0" fill="#54596e"/><path d="m75.574219 371.507812c0-18.851562-15.285157-34.132812-34.132813-34.132812" fill="#999999"/><path d="m82.398438 371.507812c-.003907-22.625-18.335938-40.957031-40.957032-40.960937-3.769531 0-6.828125 3.054687-6.828125 6.828125 0 3.769531 3.058594 6.824219 6.828125 6.824219 7.558594.003906 14.34375 3.046875 19.304688 8 4.953125 4.960937 7.996094 11.746093 8 19.308593 0 3.769532 3.058594 6.824219 6.828125 6.824219s6.824219-3.054687 6.824219-6.824219zm0 0" fill="#54596e"/><path d="m157.492188 371.507812c0-18.851562 15.285156-34.132812 34.132812-34.132812" fill="#999999"/><g fill="#54596e"><path d="m164.320312 371.507812c.003907-7.5625 3.046876-14.347656 8-19.308593 4.960938-4.953125 11.746094-7.996094 19.304688-8 3.773438 0 6.828125-3.054688 6.828125-6.824219 0-3.773438-3.054687-6.828125-6.828125-6.828125-22.621094.003906-40.953125 18.335937-40.957031 40.960937 0 3.769532 3.054687 6.824219 6.824219 6.824219 3.769531 0 6.828124-3.054687 6.828124-6.824219zm0 0"/><path d="m55.09375 204.253906c0 5.65625-4.585938 10.238282-10.242188 10.238282-5.652343 0-10.238281-4.582032-10.238281-10.238282s4.585938-10.242187 10.238281-10.242187c5.65625 0 10.242188 4.585937 10.242188 10.242187zm0 0"/><path d="m198.453125 204.253906c0 5.65625-4.585937 10.238282-10.238281 10.238282-5.65625 0-10.242188-4.582032-10.242188-10.238282s4.585938-10.242187 10.242188-10.242187c5.652344 0 10.238281 4.585937 10.238281 10.242187zm0 0"/><path d="m123.359375 118.917969v-29.535157c0-3.773437-3.054687-6.828124-6.824219-6.828124-3.773437 0-6.828125 3.054687-6.828125 6.828124v29.535157c0 3.773437 3.054688 6.828125 6.828125 6.828125 3.769532 0 6.824219-3.054688 6.824219-6.828125"/></g><path d="m116.535156 50.652344c26.386719 0 47.785156 15.28125 47.785156 34.132812v61.441406l-61.441406-20.480468" fill="#999999"/><path d="m116.535156 57.480469c11.875-.015625 22.515625 3.484375 29.820313 8.726562 3.660156 2.609375 6.476562 5.628907 8.335937 8.769531 1.859375 3.15625 2.796875 6.398438 2.800782 9.8125v51.96875l-52.453126-17.488281c-3.578124-1.191406-7.441406.742188-8.636718 4.320313-1.191406 3.578125.742187 7.441406 4.320312 8.636718l61.4375 20.476563c2.078125.695313 4.375.34375 6.152344-.9375s2.835938-3.347656 2.835938-5.539063v-61.441406c.003906-6.011718-1.730469-11.753906-4.710938-16.765625-4.480469-7.539062-11.613281-13.523437-20.21875-17.6875-8.625-4.15625-18.800781-6.503906-29.683594-6.503906-3.773437 0-6.828125 3.054687-6.828125 6.824219 0 3.769531 3.054688 6.828125 6.828125 6.828125zm0 0" fill="#54596e"/><path d="m116.535156 89.382812v-38.730468c-26.394531 0-47.789062 15.285156-47.789062 34.132812v95.574219l54.613281-68.265625" fill="#999999"/><path d="m123.359375 89.382812v-38.730468c0-1.796875-.726563-3.554688-2-4.828125-1.269531-1.269531-3.027344-1.996094-4.824219-1.996094-14.515625.011719-27.769531 4.152344-37.761718 11.265625-4.988282 3.566406-9.167969 7.902344-12.144532 12.929688-2.976562 5.011718-4.714844 10.75-4.707031 16.761718v95.574219c0 2.90625 1.824219 5.480469 4.566406 6.441406 2.742188.960938 5.773438.09375 7.589844-2.175781l54.613281-68.269531c2.355469-2.941407 1.878906-7.238281-1.066406-9.59375s-7.238281-1.878907-9.59375 1.066406l-42.457031 53.070313v-76.113282c.007812-3.410156.941406-6.652344 2.800781-9.808594 2.777344-4.710937 7.761719-9.148437 14.40625-12.347656 6.628906-3.203125 14.84375-5.152344 23.753906-5.152344v-6.824218h-6.828125v38.726562c0 3.769532 3.054688 6.824219 6.828125 6.824219 3.769532.003906 6.824219-3.050781 6.824219-6.820313zm0 0" fill="#54596e"/></g><g transform="matrix(0.25937434556086214 -0.04374989148265689 0.04374989148265689 0.25937434556086214 189.21676167585127 -40.5457810799819)" id="L1_5"><path d="m385.121094 13.488281c8 28.925781-.363282 61.167969-24.363282 82.378907-24.003906 21.210937-57.027343 25.53125-84.75 14.039062-7.996093-28.925781.363282-61.167969 24.367188-82.378906 24.007812-21.207032 57.027344-25.53125 84.746094-14.039063zm0 0" fill="#ffc35a"/><path d="m385.121094 13.488281-6.578125 1.816407c1.800781 6.511718 2.699219 13.207031 2.699219 19.894531-.011719 20.535156-8.417969 40.882812-25.003907 55.546875-14.109375 12.460937-31.542969 18.535156-48.988281 18.542968-9.761719 0-19.511719-1.917968-28.628906-5.695312l-2.613282 6.308594 6.582032-1.816406c-1.796875-6.511719-2.695313-13.210938-2.695313-19.898438.011719-20.539062 8.414063-40.886719 25-55.546875 14.113281-12.460937 31.550781-18.535156 48.992188-18.542969 9.761719 0 19.511719 1.910156 28.621093 5.695313l2.613282-6.304688-6.578125 1.816407 6.578125-1.816407 2.617187-6.304687c-10.789062-4.476563-22.308593-6.738282-33.855469-6.738282-20.613281-.007812-41.363281 7.234376-58.03125 21.96875-19.621093 17.328126-29.625 41.523438-29.613281 65.773438 0 7.90625 1.058594 15.828125 3.1875 23.535156.558594 2.019532 2.03125 3.6875 3.96875 4.488282 10.785157 4.46875 22.304688 6.730468 33.851563 6.730468 20.613281.007813 41.363281-7.230468 58.03125-21.960937 19.621094-17.335938 29.625-41.53125 29.613281-65.777344 0-7.90625-1.058594-15.828125-3.1875-23.535156-.5625-2.019531-2.027344-3.683594-3.964844-4.484375zm0 0" fill="#54596e"/><path d="m9.765625 13.488281c-7.992187 28.925781.363281 61.167969 24.367187 82.378907 24.007813 21.210937 57.03125 25.53125 84.75 14.039062 7.996094-28.925781-.363281-61.167969-24.367187-82.378906-24-21.207032-57.023437-25.53125-84.75-14.039063zm0 0" fill="#ffc35a"/><path d="m9.765625 13.488281-6.578125-1.820312c-2.128906 7.707031-3.1875 15.628906-3.1875 23.53125-.0117188 24.246093 9.992188 48.441406 29.613281 65.78125 16.667969 14.730469 37.421875 21.96875 58.03125 21.960937 11.546875 0 23.066407-2.261718 33.851563-6.730468 1.9375-.800782 3.40625-2.464844 3.96875-4.488282 2.128906-7.707031 3.1875-15.628906 3.1875-23.535156.011718-24.25-9.992188-48.449219-29.613282-65.773438-16.667968-14.734374-37.417968-21.976562-58.027343-21.96875-11.546875 0-23.066407 2.261719-33.859375 6.738282-1.9375.800781-3.40625 2.464844-3.960938 4.484375l6.574219 1.820312 2.617187 6.304688c9.113282-3.785157 18.859376-5.695313 28.625-5.695313 17.445313.007813 34.878907 6.082032 48.988282 18.542969 16.589844 14.660156 24.992187 35.007813 25.003906 55.546875 0 6.6875-.894531 13.386719-2.695312 19.894531l6.578124 1.820313-2.613281-6.308594c-9.113281 3.777344-18.863281 5.695312-28.628906 5.695312-17.441406-.007812-34.878906-6.082031-48.988281-18.542968-16.585938-14.664063-24.992188-35.011719-25-55.546875 0-6.6875.894531-13.382813 2.695312-19.894531l-6.582031-1.816407 2.617187 6.304688zm0 0" fill="#54596e"/><path d="m116.683594 46.964844c-44.195313 0-81.125 32.5-85.242188 75.007812l-15.777344 162.773438c0 21.332031 15.695313 39.65625 37.390626 43.648437l64.117187 7.558594c6.839844 29.933594 34.417969 52.347656 67.457031 52.347656h30.714844c33.039062 0 60.617188-22.414062 67.457031-52.347656l64.117188-7.558594c21.695312-3.992187 37.390625-22.316406 37.390625-43.648437l-15.777344-162.773438c-4.117188-42.507812-41.046875-75.007812-85.242188-75.007812z" fill="#ffd578"/><path d="m116.683594 46.964844v-6.828125c-47.558594-.007813-87.539063 35-92.039063 81.175781l-15.773437 162.769531-.03125.664063c.011718 24.761718 18.191406 45.820312 42.976562 50.363281l.4375.0625 64.117188 7.558594.800781-6.777344-6.652344 1.523437c7.582031 33.121094 37.945313 57.636719 74.109375 57.644532h30.71875c36.164063-.007813 66.527344-24.523438 74.109375-57.644532l-6.652343-1.523437.800781 6.777344 64.117187-7.558594.4375-.0625c24.785156-4.542969 42.964844-25.601563 42.976563-50.363281l-.03125-.664063-15.773438-162.769531c-4.503906-46.175781-44.484375-81.183594-92.039062-81.175781h-166.605469v13.652343h166.605469c40.832031.007813 74.714843 29.996094 78.445312 68.84375l15.777344 162.773438 6.792969-.660156h-6.828125c.015625 17.898437-13.195313 33.496094-31.796875 36.933594l1.238281 6.714843-.800781-6.777343-64.117188 7.558593c-2.871094.335938-5.210937 2.445313-5.859375 5.257813-6.089843 26.742187-30.886719 47.042968-60.796875 47.042968h-30.71875c-29.910156 0-54.710937-20.300781-60.796875-47.042968-.648437-2.8125-2.992187-4.921875-5.859375-5.257813l-64.117187-7.558593-.800781 6.777343 1.234374-6.714843c-18.597656-3.4375-31.808593-19.03125-31.796874-36.933594h-6.824219l6.792969.660156 15.773437-162.773438c3.734375-38.847656 37.621094-68.835937 78.449219-68.84375z" fill="#54596e"/><path d="m285.296875 254.847656c0-62.390625-38.195313-57.613281-85.308594-57.613281-47.117187 0-85.3125-4.777344-85.3125 57.613281 0 62.394532 38.195313 112.96875 85.3125 112.96875 47.113281 0 85.308594-50.574218 85.308594-112.96875" fill="#fff35f"/><path d="m199.988281 251.621094 37.488281-42.734375c4.011719-4.570313.765626-11.734375-5.316406-11.734375h-64.34375c-6.082031 0-9.328125 7.164062-5.316406 11.734375zm0 0" fill="#54596e"/><path d="m159.027344 159.605469c0 5.65625-4.585938 10.238281-10.238282 10.238281-5.65625 0-10.242187-4.582031-10.242187-10.238281s4.585937-10.242188 10.242187-10.242188c5.652344 0 10.238282 4.585938 10.238282 10.242188zm0 0" fill="#54596e"/><path d="m375.363281 263.214844c-6.675781 8.816406-16.660156 15.226562-28.445312 17.398437l-64.117188 7.554688c-1.328125 5.808593-3.4375 11.335937-6.214843 16.46875-13.898438 37.429687-42.976563 63.179687-76.597657 63.179687-33.625 0-62.703125-25.753906-76.601562-63.179687-2.777344-5.132813-4.886719-10.660157-6.214844-16.46875l-64.117187-7.554688c-11.78125-2.171875-21.765626-8.582031-28.441407-17.398437l-2.117187 21.84375c.140625 17.707031 13.214844 33.097656 31.605468 36.585937l63.871094 7.53125c2.871094.335938 5.210938 2.445313 5.859375 5.257813 6.085938 26.742187 30.878907 47.042968 60.789063 47.042968h.007812 30.71875c29.910156 0 54.703125-20.300781 60.796875-47.042968.648438-2.8125 2.992188-4.921875 5.859375-5.257813l63.871094-7.53125c18.390625-3.488281 31.464844-18.878906 31.605469-36.585937z" fill="#eec877"/><path d="m381.214844 252.839844c-1.472656 3.714844-3.449219 7.203125-5.855469 10.375l2.117187 21.84375c-.140624 17.707031-13.214843 33.097656-31.605468 36.585937l-63.871094 7.53125c-2.871094.335938-5.210938 2.445313-5.859375 5.257813-6.089844 26.742187-30.886719 47.042968-60.796875 47.042968h-30.714844-.007812c-29.910156 0-54.703125-20.300781-60.789063-47.042968-.648437-2.8125-2.992187-4.921875-5.859375-5.257813l-63.871094-7.53125c-18.390624-3.488281-31.464843-18.878906-31.605468-36.585937l2.117187-21.84375c-2.40625-3.171875-4.378906-6.660156-5.855469-10.375l-3.089843 31.90625c0 21.332031 15.695312 39.65625 37.386719 43.652344l64.117187 7.554687c6.839844 29.933594 34.417969 52.347656 67.457031 52.347656h30.71875c33.039063 0 60.613282-22.414062 67.457032-52.347656l64.117187-7.554687c21.691406-3.996094 37.386719-22.320313 37.386719-43.652344z" fill="#54596e"/><path d="m123.386719 304.640625c13.898437 37.425781 42.976562 63.179687 76.601562 63.179687 33.621094 0 62.699219-25.753906 76.597657-63.179687-11.535157 21.316406-34.617188 35.871094-61.242188 35.871094h-30.714844c-26.625-.003907-49.703125-14.554688-61.242187-35.871094" fill="#eee361"/><g fill="#54596e"><path d="m261.425781 159.605469c0 5.65625-4.582031 10.238281-10.238281 10.238281s-10.242188-4.582031-10.242188-10.238281 4.585938-10.242188 10.242188-10.242188 10.238281 4.585938 10.238281 10.242188zm0 0"/><path d="m199.988281 251.765625h6.824219c0-7.542969 0-13.640625 0-13.65625 0-1.796875-.726562-3.554687-2-4.828125-1.269531-1.269531-3.027344-1.996094-4.824219-1.996094s-3.558593.726563-4.828125 1.996094c-1.269531 1.273438-2 3.03125-2 4.828125v13.65625 13.652344c0 1.796875.730469 3.554687 2 4.828125 1.273438 1.269531 3.03125 1.996094 4.828125 1.996094s3.554688-.726563 4.824219-1.996094c1.273438-1.273438 2-3.03125 2-4.828125 0 0 0-6.113281 0-13.652344h-13.652344v13.652344c0 1.796875.730469 3.554687 2 4.828125 1.273438 1.269531 3.03125 1.996094 4.828125 1.996094s3.554688-.726563 4.824219-1.996094c1.273438-1.273438 2-3.03125 2-4.828125 0 0 0-6.113281 0-13.652344 0-7.542969 0-13.640625 0-13.65625 0-1.796875-.726562-3.554687-2-4.828125-1.269531-1.269531-3.027344-1.996094-4.824219-1.996094s-3.558593.726563-4.828125 1.996094c-1.269531 1.273438-2 3.03125-2 4.828125v13.65625zm0 0"/><path d="m145.375 326.855469c33.933594-.003907 61.433594-27.503907 61.4375-61.4375 0-3.773438-3.054688-6.828125-6.824219-6.828125s-6.828125 3.054687-6.828125 6.828125c-.003906 13.214843-5.339844 25.121093-13.996094 33.789062-8.667968 8.660157-20.570312 13.992188-33.789062 13.996094-3.769531 0-6.828125 3.054687-6.828125 6.828125 0 3.769531 3.058594 6.828125 6.828125 6.824219zm0 0"/><path d="m254.601562 313.203125c-13.21875-.003906-25.125-5.335937-33.792968-13.996094-8.65625-8.667969-13.992188-20.570312-13.996094-33.789062 0-3.773438-3.054688-6.828125-6.824219-6.828125s-6.828125 3.054687-6.828125 6.828125c.003906 33.933593 27.503906 61.433593 61.441406 61.4375 3.769532 0 6.824219-3.054688 6.824219-6.824219s-3.058593-6.824219-6.824219-6.828125zm0 0"/></g></g><g transform="matrix(0.18975804594974474 0.09800689906676203 -0.09800689906676203 0.18975804594974474 110.5479916709313 82.38117752530765)" id="L1_6"><circle cx="66" cy="222" r="66" fill="#965a50"/><circle cx="66" cy="222" r="41" fill="#ebc9a0"/><circle cx="445" cy="222" r="66" fill="#965a50"/><circle cx="445" cy="222" r="41" fill="#ebc9a0"/><path d="M442.589,262.049c-8.366-14.436-13.169-30.655-13.169-47.34v-0.001  c0-72.373-44.364-134.33-107.355-160.318V24.774l-41.29,16.516l-8.258-33.032c-21.781,7.261-40.361,22.498-54.356,37.298  c-77.557,17.283-135.58,86.39-135.58,169.154c0,16.685-4.803,32.904-13.169,47.34c-12.72,21.948-19.863,46.482-19.863,72.402  c0,93.496,92.431,169.29,206.452,169.29s206.452-75.794,206.452-169.29C462.452,308.532,455.308,283.997,442.589,262.049z" fill="#af6e5a"/><path d="M140.387,364.043c0-30.24,7.143-58.864,19.863-84.469c8.367-16.841,13.169-35.764,13.169-55.23  c0-84.035,43.969-155.956,106.493-186.502l-7.396-29.584c-21.781,7.261-40.361,22.498-54.357,37.298  C140.604,62.839,82.581,131.946,82.581,214.71c0,16.685-4.802,32.904-13.169,47.34c-12.72,21.948-19.863,46.482-19.863,72.402  c0,75.465,60.232,139.37,143.415,161.223C160.282,460.734,140.387,414.619,140.387,364.043z" fill="#965a50"/><path d="M256,470.71c68.412,0,123.871-44.367,123.871-99.097c0-11.354-2.414-22.245-6.835-32.386  c-6.41-14.707-4.228-31.587,6.07-43.889c13.134-15.691,19.908-36.877,16.333-59.635c-4.91-31.259-30.182-56.486-61.448-61.353  c-23.892-3.719-46.037,3.968-61.903,18.439c-4.51,4.113-10.3,6.17-16.087,6.17c-5.79,0-11.581-2.056-16.091-6.17  c-15.866-14.471-38.011-22.158-61.903-18.439c-31.266,4.866-56.537,30.094-61.448,61.353c-3.575,22.757,3.199,43.943,16.333,59.635  c10.298,12.303,12.48,29.182,6.07,43.889c-4.42,10.142-6.835,21.033-6.835,32.386C132.129,426.342,187.588,470.71,256,470.71z" fill="#faebc8"/><path d="M132.129,371.612c0,18.522,6.468,35.795,17.524,50.625c-5.938-18.411-9.266-37.916-9.266-58.195  c0-30.24,7.143-58.864,19.863-84.469c8.367-16.841,13.169-35.764,13.169-55.23c0-17.307,1.96-34.056,5.468-50.08  c-0.295,0.042-0.583,0.04-0.879,0.086c-31.266,4.866-56.536,30.094-61.448,61.352c-3.575,22.758,3.2,43.944,16.333,59.635  c10.298,12.302,12.481,29.181,6.071,43.889C134.543,349.368,132.129,360.259,132.129,371.612z" fill="#f5dcb4"/><g><path d="M239.476,330.323c-1.242,0-2.5-0.278-3.685-0.871l-16.516-8.258c-4.081-2.04-5.734-7-3.694-11.081   c2.048-4.081,7-5.734,11.081-3.694l16.516,8.258c4.081,2.04,5.734,7,3.694,11.081C245.419,328.653,242.508,330.323,239.476,330.323   z" fill="#5d5360"/><path d="M272.524,330.323c-3.032,0-5.944-1.669-7.395-4.565c-2.04-4.081-0.387-9.04,3.694-11.081   l16.516-8.258c4.073-2.04,9.032-0.387,11.081,3.694c2.04,4.081,0.387,9.04-3.694,11.081l-16.516,8.258   C275.024,330.044,273.766,330.323,272.524,330.323z" fill="#5d5360"/></g><path d="M182.319,363.355c-5.001,0-8.941,4.431-8.248,9.384c5.126,36.617,39.853,64.938,81.929,64.938  c42.077,0,76.803-28.321,81.929-64.938c0.693-4.953-3.247-9.384-8.248-9.384H182.319z" fill="#4b3f4e"/><path d="M208.417,424.038c13.457,8.563,29.849,13.639,47.583,13.639s34.126-5.076,47.583-13.639  c-5.966-20.666-25.063-35.909-47.583-35.909S214.383,403.371,208.417,424.038z" fill="#e6646e"/><path d="M181.677,272.516L181.677,272.516c-13.682,0-24.774-11.092-24.774-24.774v-8.258  c0-13.682,11.092-24.774,24.774-24.774l0,0c13.682,0,24.774,11.092,24.774,24.774v8.258  C206.452,261.424,195.36,272.516,181.677,272.516z" fill="#4b3f4e"/><path d="M181.677,214.71v28.903c0,6.841,5.546,12.387,12.387,12.387s12.387-5.546,12.387-12.387v-4.129  C206.452,225.801,195.36,214.71,181.677,214.71z" fill="#5d5360"/><circle cx="181" cy="231" r="8" fill="#ffffff"/><path d="M330.323,272.516L330.323,272.516c-13.682,0-24.774-11.092-24.774-24.774v-8.258  c0-13.682,11.092-24.774,24.774-24.774l0,0c13.682,0,24.774,11.092,24.774,24.774v8.258  C355.097,261.424,344.005,272.516,330.323,272.516z" fill="#4b3f4e"/><path d="M330.323,214.71v28.903c0,6.841,5.546,12.387,12.387,12.387s12.387-5.546,12.387-12.387v-4.129  C355.097,225.801,344.005,214.71,330.323,214.71z" fill="#5d5360"/><circle cx="330" cy="231" r="8" fill="#ffffff"/><path d="M256,437.677c2.792,0,5.538-0.169,8.258-0.415v-16.101c0-4.56-3.694-8.258-8.258-8.258  s-8.258,3.698-8.258,8.258v16.101C250.462,437.508,253.208,437.677,256,437.677z" fill="#ff8087"/></g><g transform="matrix(0.20521946817453857 0.10972129783633408 -0.10972129783633408 0.20521946817453857 105.53954229173507 -46.63776220046796)" id="L1_8"><path d="m429.75 164.589844c17.695312 1.054687 32.902344 12.925781 38.222656 29.835937 8.242188 18.136719 24.636719 31.253907 44.136719 35.3125 0 0-44.136719 44.136719-114.757813 8.828125h-282.484374c-70.617188 35.308594-114.757813-8.828125-114.757813-8.828125 19.503906-4.058593 35.898437-17.175781 44.140625-35.3125 5.316406-16.910156 20.523438-28.78125 38.222656-29.835937zm0 0" fill="#2c2f38"/><path d="m.109375 229.738281s44.140625 44.136719 114.757813 8.828125v-35.3125s-17.652344-17.652344-52.964844 8.828125c-18.359375 11.949219-39.890625 18.097657-61.792969 17.65625" fill="#fb7b76"/><path d="m512.109375 229.738281c-21.902344.441407-43.429687-5.707031-61.792969-17.65625-35.308594-26.480469-52.964844-8.828125-52.964844-8.828125v35.3125c70.621094 35.308594 114.757813-8.828125 114.757813-8.828125" fill="#fb7b76"/><path d="m436.191406 251.101562c9.140625 27.265626 13.90625 55.808594 14.125 84.566407 0 82.097656-42.8125 135.945312-105.488281 160.664062h-177.523437c-62.585938-24.804687-105.402344-78.566406-105.402344-160.664062.21875-28.757813 4.988281-57.300781 14.125-84.566407l65.324218-144.949218h211.863282zm0 0" fill="#2c2f38"/><path d="m411.632812 251.101562c7.929688 27.496094 12.035157 55.953126 12.203126 84.566407 0 82.097656-36.980469 135.945312-91.101563 160.664062h-153.316406c-54.054688-24.804687-91.03125-78.566406-91.03125-160.664062.167969-28.613281 4.273437-57.070313 12.199219-84.566407l56.417968-144.949218h182.96875zm0 0" fill="#2c3e50"/><path d="m421.890625 142.257812c5.121094 5.554688 7.960937 12.835938 7.945313 20.390626-.058594 12.5625-7.792969 23.816406-19.5 28.375-11.707032 4.558593-25.011719 1.496093-33.550782-7.71875-5.160156 13.855468-19.480468 22.050781-34.039062 19.472656s-25.199219-15.191406-25.285156-29.976563c0 16.941407-13.734376 30.675781-30.675782 30.675781s-30.675781-13.734374-30.675781-30.675781c0 16.941407-13.734375 30.675781-30.675781 30.675781s-30.675782-13.734374-30.675782-30.675781c-.085937 14.785157-10.722656 27.398438-25.28125 29.976563-14.558593 2.578125-28.882812-5.617188-34.039062-19.472656-8.539062 9.214843-21.84375 12.277343-33.554688 7.71875-11.707031-4.558594-19.441406-15.8125-19.5-28.375-.027343-7.558594 2.8125-14.84375 7.945313-20.390626-15.96875-1.089843-28.363281-14.363281-28.363281-30.367187 0-16.007813 12.394531-29.277344 28.363281-30.367187-5.132813-5.546876-7.972656-12.835938-7.945313-20.390626.078126-12.4375 7.664063-23.597656 19.199219-28.242187 11.539063-4.644531 24.738281-1.859375 33.414063 7.054687-1-2.988281-1.503906-6.117187-1.5-9.269531 0-16.917969 13.714844-30.6328122 30.628906-30.6328122 16.917969 0 30.632812 13.7148432 30.632812 30.6328122 0-16.941406 13.734376-30.675781 30.675782-30.675781s30.675781 13.734375 30.675781 30.675781c0-16.941406 13.734375-30.675781 30.675781-30.675781s30.675782 13.734375 30.675782 30.675781c0-16.917969 13.714843-30.6328122 30.632812-30.6328122s30.632812 13.7148432 30.632812 30.6328122c-.003906 3.148438-.511718 6.277344-1.5 9.269531 8.671876-8.914062 21.875-11.699218 33.410157-7.054687 11.539062 4.644531 19.121093 15.804687 19.199219 28.242187.027343 7.554688-2.808594 14.84375-7.945313 20.390626 15.96875 1.089843 28.367187 14.359374 28.367187 30.367187 0 16.003906-12.398437 29.277344-28.367187 30.367187zm0 0" fill="#bdc3c7"/><path d="m406.824219 131.691406c4.476562 3.734375 7.113281 9.234375 7.21875 15.066406 0 12.464844-12.4375 22.511719-27.847657 22.511719-7.449218.132813-14.691406-2.4375-20.382812-7.238281-5.117188 9.539062-15.269531 15.277344-26.078125 14.742188-15.414063 0-27.851563-10.046876-27.851563-22.511719 0 12.464843-12.515624 22.511719-27.921874 22.511719-15.402344 0-27.851563-10.046876-27.851563-22.511719 0 12.464843-12.515625 22.511719-27.851563 22.511719-15.332031 0-27.921874-10.046876-27.921874-22.511719 0 12.464843-12.4375 22.511719-27.847657 22.511719-10.8125.535156-20.964843-5.203126-26.078125-14.742188-5.695312 4.800781-12.9375 7.371094-20.382812 7.238281-15.414063 0-27.851563-10.046875-27.851563-22.511719.09375-5.835937 2.730469-11.339843 7.222657-15.066406-13.15625.417969-24.417969-9.363281-25.839844-22.449218 1.417968-13.089844 12.679687-22.871094 25.839844-22.449219-4.492188-3.730469-7.128907-9.234375-7.222657-15.070313 0-12.464844 12.4375-22.507812 27.851563-22.507812 7.253906-.121094 14.320312 2.304687 19.976562 6.847656-.898437-2.171875-1.359375-4.5-1.359375-6.847656 0-12.464844 12.4375-22.511719 27.84375-22.511719 15.402344 0 27.847657 10.046875 27.847657 22.511719 0-12.464844 12.519531-22.511719 27.921874-22.511719 15.40625 0 27.851563 10.046875 27.851563 22.511719 0-12.464844 12.519531-22.511719 27.851563-22.511719 15.332031 0 27.921874 10.046875 27.921874 22.511719 0-12.464844 12.4375-22.511719 27.851563-22.511719s27.84375 10.046875 27.84375 22.511719c-.007813 2.347656-.46875 4.675781-1.359375 6.847656 5.652344-4.542969 12.71875-6.96875 19.976562-6.847656 15.410157 0 27.847657 10.042968 27.847657 22.507812-.09375 5.835938-2.730469 11.339844-7.21875 15.070313 13.15625-.421875 24.417969 9.359375 25.835937 22.449219-1.421875 13.085937-12.679687 22.867187-25.835937 22.449218zm0 0" fill="#e6e7e8"/><path d="m211.972656 335.667969h88.277344c39 0 70.617188 31.617187 70.617188 70.621093v35.3125c0 39-31.617188 70.617188-70.617188 70.617188h-88.277344c-39.003906 0-70.621094-31.617188-70.621094-70.617188v-35.3125c0-39.003906 31.617188-70.621093 70.621094-70.621093zm0 0" fill="#556080"/><path d="m211.972656 406.289062c-3.363281.019532-6.441406-1.875-7.945312-4.882812-3.613282-6.734375-4.292969-14.664062-1.871094-21.917969 2.417969-7.253906 7.71875-13.191406 14.652344-16.410156 4.347656-2.152344 9.617187-.390625 11.800781 3.9375 2.183594 4.332031.460937 9.617187-3.855469 11.828125-2.785156 1.085938-4.945312 3.347656-5.898437 6.179688-.957031 2.835937-.605469 5.945312.957031 8.492187 1.363281 2.726563 1.222656 5.964844-.375 8.5625-1.59375 2.601563-4.417969 4.191406-7.464844 4.210937zm0 0" fill="#2c2f38"/><path d="m300.25 406.289062c-3.058594 0-5.898438-1.585937-7.507812-4.1875-1.605469-2.601562-1.753907-5.851562-.386719-8.585937 1.539062-2.539063 1.886719-5.625.949219-8.445313-.941407-2.816406-3.066407-5.078124-5.820313-6.191406-4.363281-2.179687-6.136719-7.480468-3.957031-11.84375 2.179687-4.363281 7.484375-6.136718 11.847656-3.957031 6.941406 3.214844 12.25 9.144531 14.675781 16.402344 2.425781 7.253906 1.753907 15.183593-1.859375 21.925781-1.5 3.007812-4.582031 4.902344-7.941406 4.882812zm0 0" fill="#2c2f38"/><path d="m220.800781 265.046875c0 14.628906-11.859375 26.484375-26.484375 26.484375s-26.480468-11.855469-26.480468-26.484375c0-14.625 11.855468-26.480469 26.480468-26.480469s26.484375 11.855469 26.484375 26.480469zm0 0" fill="#ffffff"/><path d="m203.144531 265.046875c0 4.875-3.953125 8.828125-8.828125 8.828125s-8.828125-3.953125-8.828125-8.828125 3.953125-8.828125 8.828125-8.828125 8.828125 3.953125 8.828125 8.828125zm0 0" fill="#2c2f38"/><path d="m256.109375 485.738281c-2.355469 0-57.925781-.34375-77.964844-30.410156-2.707031-4.058594-1.609375-9.539063 2.445313-12.246094 4.058594-2.703125 9.539062-1.609375 12.246094 2.445313 12.332031 18.503906 49.855468 22.554687 63.273437 22.554687s50.988281-4.121093 63.277344-22.554687c1.75-2.621094 4.765625-4.113282 7.914062-3.910156 3.148438.203124 5.949219 2.070312 7.34375 4.898437 1.398438 2.828125 1.179688 6.1875-.570312 8.8125-20.039063 30.066406-75.605469 30.410156-77.964844 30.410156zm0 0" fill="#2c2f38"/><path d="m211.972656 300.359375h-35.3125c-4.875 0-8.824218-3.953125-8.824218-8.828125s3.949218-8.828125 8.824218-8.828125h35.3125c4.875 0 8.828125 3.953125 8.828125 8.828125s-3.953125 8.828125-8.828125 8.828125zm0 0" fill="#556080"/><path d="m344.386719 265.046875c0 14.628906-11.855469 26.484375-26.484375 26.484375-14.625 0-26.480469-11.855469-26.480469-26.484375 0-14.625 11.855469-26.480469 26.480469-26.480469 14.628906 0 26.484375 11.855469 26.484375 26.480469zm0 0" fill="#ffffff"/><path d="m326.730469 265.046875c0 4.875-3.953125 8.828125-8.828125 8.828125s-8.828125-3.953125-8.828125-8.828125 3.953125-8.828125 8.828125-8.828125 8.828125 3.953125 8.828125 8.828125zm0 0" fill="#2c2f38"/><path d="m335.558594 300.359375h-35.308594c-4.878906 0-8.828125-3.953125-8.828125-8.828125s3.949219-8.828125 8.828125-8.828125h35.308594c4.875 0 8.828125 3.953125 8.828125 8.828125s-3.953125 8.828125-8.828125 8.828125zm0 0" fill="#556080"/></g><g transform="matrix(0.1974895418339436 0.04879153494283809 -0.04879153494283809 0.1974895418339436 269.933310235877 166.9520443451439)" id="L1_9"><g><path d="M163.189,67.148C129.616,67.148,121.222,0,79.255,0C52.713,0,28.894,16.787,28.894,50.361   s58.754,50.361,41.967,109.115L163.189,67.148z" fill="#ff8c46"/><path d="M347.845,67.148C381.419,67.148,389.812,0,431.78,0c26.542,0,50.361,16.787,50.361,50.361   s-58.754,50.361-41.967,109.115L347.845,67.148z" fill="#ff8c46"/></g><g><path d="M331.541,461.639C331.541,489.453,311.626,512,256,512s-75.541-22.547-75.541-50.361v-8.393h150.599   L331.541,461.639z" fill="#ffebd2"/><path d="M459.368,182.91c34.446,56.303,40.042,102.467,40.042,102.467h-16.787   c0,0,16.787,41.443,16.787,67.148l-25.18-8.393c0,0,16.787,37.77,16.787,67.148c0,0.525-25.18-8.393-25.18-8.393   s12.59,28.328,8.393,41.967c-0.154,0.501-25.18-8.393-25.18-8.393s7.344,19.585,0,33.574l-41.967-16.787   c0,0-7.846,25.681-8.393,25.18c-18.361-16.787-41.967-25.18-41.967-25.18H155.279c0,0-23.607,8.393-41.967,25.18   c-0.548,0.5-8.393-25.18-8.393-25.18l-41.967,16.787c-7.344-13.989,0-33.574,0-33.574s-25.026,8.895-25.18,8.393   c-4.197-13.639,8.393-41.967,8.393-41.967s-25.18,8.918-25.18,8.393c0-29.377,16.787-67.148,16.787-67.148l-25.18,8.393   c0-25.705,16.787-67.148,16.787-67.148H12.59c0,0,5.595-46.164,40.042-102.467H459.368z" fill="#ffebd2"/></g><ellipse cx="255px" cy="230px" rx="209px" ry="197px" fill="#ffa54b"/><g><ellipse cx="156px" cy="234px" rx="37px" ry="46px" transform="matrix(-0.6042 -0.7968 0.7968 -0.6042 63.9475 499.8926)" fill="#ffebd2"/><ellipse cx="354px" cy="234px" rx="37px" ry="46px" transform="matrix(-0.6042 0.7968 -0.7968 -0.6042 755.9204 92.7031)" fill="#ffebd2"/></g><path d="M255.524,260.197h-0.013c-28.711,0-55.045,18.268-68.536,47.511  c-18.163,39.374-40.573,91.996-40.573,111.964h218.229c0-19.967-22.409-72.59-40.573-111.964  C310.569,278.464,284.234,260.197,255.524,260.197z" fill="#ff8c46"/><path d="M304.795,369.311c-19.393,0-36.855,6-49.278,15.588c-12.422-9.588-29.885-15.588-49.278-15.588  c-37.682,0-68.23,22.547-68.23,50.361s30.548,50.361,68.23,50.361c15.728,0,30.187-3.947,41.716-10.554  c4.764-2.73,10.357-2.73,15.122,0c11.529,6.607,25.988,10.554,41.716,10.554c37.682,0,68.23-22.547,68.23-50.361  S342.478,369.311,304.795,369.311z" fill="#ffdeb7"/><g><path d="M215.344,374.991l33.48,44.232c3.358,4.437,10.026,4.437,13.384,0l33.48-44.232   c4.184-5.528,0.241-13.459-6.693-13.459h-4.5c-2.52,0-5.026,0.378-7.432,1.122l-14.116,4.361c-4.842,1.496-10.023,1.496-14.865,0   l-14.116-4.361c-2.408-0.744-4.913-1.122-7.432-1.122h-4.499C215.103,361.532,211.16,369.463,215.344,374.991z" fill="#464655"/><circle cx="154" cy="235" r="16" fill="#464655"/><circle cx="356" cy="235" r="16" fill="#464655"/><path d="M77.358,335.001l46.206-37.805c4.012-3.283,1.123-9.761-4.001-8.969l-61.478,9.5   C63.123,310.86,69.618,323.331,77.358,335.001z" fill="#464655"/><path d="M121.493,382.577l25.052-66.807c1.922-5.125-4.494-9.256-8.364-5.385l-45.183,45.183   C101.555,365.406,111.098,374.455,121.493,382.577z" fill="#464655"/><path d="M226.405,109.149l-6.633-72.667c-8.106,1.308-16.052,3.044-23.811,5.201l21.532,69.239   C219.12,116.157,226.903,114.609,226.405,109.149z" fill="#464655"/><path d="M291.263,36.482l-6.633,72.667c-0.498,5.46,7.284,7.007,8.913,1.772l21.532-69.239   C307.315,39.527,299.369,37.79,291.263,36.482z" fill="#464655"/><path d="M337.387,49.156l-20.509,47.449c-2.137,4.946,4.549,8.868,7.823,4.588l32.73-42.791   C350.946,55.01,344.271,51.9,337.387,49.156z" fill="#464655"/><path d="M194.157,96.605l-20.509-47.449c-6.884,2.745-13.559,5.853-20.044,9.247l32.73,42.79   C189.608,105.473,196.295,101.551,194.157,96.605z" fill="#464655"/><path d="M272.224,34.253c-5.518-0.408-11.077-0.679-16.707-0.679c-5.63,0-11.189,0.271-16.707,0.679   l12.169,103.44c0.633,5.38,8.442,5.38,9.075,0L272.224,34.253z" fill="#464655"/><path d="M434.868,335.001l-46.206-37.805c-4.012-3.283-1.123-9.761,4.001-8.969l61.478,9.5   C449.104,310.86,442.608,323.331,434.868,335.001z" fill="#464655"/><path d="M390.733,382.577l-25.052-66.807c-1.922-5.125,4.494-9.256,8.364-5.385l45.183,45.183   C410.671,365.406,401.129,374.455,390.733,382.577z" fill="#464655"/></g></g></defs><g fi:class="KUsePattern" opacity="1"><pattern id="pattern_L1_0" width="350" height="350" patternUnits="userSpaceOnUse"><use xlink:href="#L1_0" x="-350" y="-350"/><use xlink:href="#L1_0" x="0" y="-350"/><use xlink:href="#L1_0" x="350" y="-350"/><use xlink:href="#L1_0" x="-350" y="0"/><use xlink:href="#L1_0" x="0" y="0"/><use xlink:href="#L1_0" x="350" y="0"/><use xlink:href="#L1_0" x="-350" y="350"/><use xlink:href="#L1_0" x="0" y="350"/><use xlink:href="#L1_0" x="350" y="350"/></pattern><rect x="0" y="0" width="100%" height="100%" fill="url(#pattern_L1_0)"/></g><g fi:class="KUsePattern"><pattern id="pattern_L1_1" width="350" height="350" patternUnits="userSpaceOnUse"><use xlink:href="#L1_1" x="-350" y="-350"/><use xlink:href="#L1_1" x="0" y="-350"/><use xlink:href="#L1_1" x="350" y="-350"/><use xlink:href="#L1_1" x="-350" y="0"/><use xlink:href="#L1_1" x="0" y="0"/><use xlink:href="#L1_1" x="350" y="0"/><use xlink:href="#L1_1" x="-350" y="350"/><use xlink:href="#L1_1" x="0" y="350"/><use xlink:href="#L1_1" x="350" y="350"/></pattern><rect x="0" y="0" width="100%" height="100%" fill="url(#pattern_L1_1)"/></g><g fi:class="KUsePattern"><pattern id="pattern_L1_2" width="350" height="350" patternUnits="userSpaceOnUse"><use xlink:href="#L1_2" x="-350" y="-350"/><use xlink:href="#L1_2" x="0" y="-350"/><use xlink:href="#L1_2" x="350" y="-350"/><use xlink:href="#L1_2" x="-350" y="0"/><use xlink:href="#L1_2" x="0" y="0"/><use xlink:href="#L1_2" x="350" y="0"/><use xlink:href="#L1_2" x="-350" y="350"/><use xlink:href="#L1_2" x="0" y="350"/><use xlink:href="#L1_2" x="350" y="350"/></pattern><rect x="0" y="0" width="100%" height="100%" fill="url(#pattern_L1_2)"/></g><g fi:class="KUsePattern"><pattern id="pattern_L1_3" width="350" height="350" patternUnits="userSpaceOnUse"><use xlink:href="#L1_3" x="-350" y="-350"/><use xlink:href="#L1_3" x="0" y="-350"/><use xlink:href="#L1_3" x="350" y="-350"/><use xlink:href="#L1_3" x="-350" y="0"/><use xlink:href="#L1_3" x="0" y="0"/><use xlink:href="#L1_3" x="350" y="0"/><use xlink:href="#L1_3" x="-350" y="350"/><use xlink:href="#L1_3" x="0" y="350"/><use xlink:href="#L1_3" x="350" y="350"/></pattern><rect x="0" y="0" width="100%" height="100%" fill="url(#pattern_L1_3)"/></g><g fi:class="KUsePattern"><pattern id="pattern_L1_4" width="350" height="350" patternUnits="userSpaceOnUse"><use xlink:href="#L1_4" x="-350" y="-350"/><use xlink:href="#L1_4" x="0" y="-350"/><use xlink:href="#L1_4" x="350" y="-350"/><use xlink:href="#L1_4" x="-350" y="0"/><use xlink:href="#L1_4" x="0" y="0"/><use xlink:href="#L1_4" x="350" y="0"/><use xlink:href="#L1_4" x="-350" y="350"/><use xlink:href="#L1_4" x="0" y="350"/><use xlink:href="#L1_4" x="350" y="350"/></pattern><rect x="0" y="0" width="100%" height="100%" fill="url(#pattern_L1_4)"/></g><g fi:class="KUsePattern"><pattern id="pattern_L1_5" width="350" height="350" patternUnits="userSpaceOnUse"><use xlink:href="#L1_5" x="-350" y="-350"/><use xlink:href="#L1_5" x="0" y="-350"/><use xlink:href="#L1_5" x="350" y="-350"/><use xlink:href="#L1_5" x="-350" y="0"/><use xlink:href="#L1_5" x="0" y="0"/><use xlink:href="#L1_5" x="350" y="0"/><use xlink:href="#L1_5" x="-350" y="350"/><use xlink:href="#L1_5" x="0" y="350"/><use xlink:href="#L1_5" x="350" y="350"/></pattern><rect x="0" y="0" width="100%" height="100%" fill="url(#pattern_L1_5)"/></g><g fi:class="KUsePattern"><pattern id="pattern_L1_6" width="350" height="350" patternUnits="userSpaceOnUse"><use xlink:href="#L1_6" x="-350" y="-350"/><use xlink:href="#L1_6" x="0" y="-350"/><use xlink:href="#L1_6" x="350" y="-350"/><use xlink:href="#L1_6" x="-350" y="0"/><use xlink:href="#L1_6" x="0" y="0"/><use xlink:href="#L1_6" x="350" y="0"/><use xlink:href="#L1_6" x="-350" y="350"/><use xlink:href="#L1_6" x="0" y="350"/><use xlink:href="#L1_6" x="350" y="350"/></pattern><rect x="0" y="0" width="100%" height="100%" fill="url(#pattern_L1_6)"/></g><g fi:class="KUsePattern"><pattern id="pattern_L1_8" width="350" height="350" patternUnits="userSpaceOnUse"><use xlink:href="#L1_8" x="-350" y="-350"/><use xlink:href="#L1_8" x="0" y="-350"/><use xlink:href="#L1_8" x="350" y="-350"/><use xlink:href="#L1_8" x="-350" y="0"/><use xlink:href="#L1_8" x="0" y="0"/><use xlink:href="#L1_8" x="350" y="0"/><use xlink:href="#L1_8" x="-350" y="350"/><use xlink:href="#L1_8" x="0" y="350"/><use xlink:href="#L1_8" x="350" y="350"/></pattern><rect x="0" y="0" width="100%" height="100%" fill="url(#pattern_L1_8)"/></g><g fi:class="KUsePattern"><pattern id="pattern_L1_9" width="350" height="350" patternUnits="userSpaceOnUse"><use xlink:href="#L1_9" x="-350" y="-350"/><use xlink:href="#L1_9" x="0" y="-350"/><use xlink:href="#L1_9" x="350" y="-350"/><use xlink:href="#L1_9" x="-350" y="0"/><use xlink:href="#L1_9" x="0" y="0"/><use xlink:href="#L1_9" x="350" y="0"/><use xlink:href="#L1_9" x="-350" y="350"/><use xlink:href="#L1_9" x="0" y="350"/><use xlink:href="#L1_9" x="350" y="350"/></pattern><rect x="0" y="0" width="100%" height="100%" fill="url(#pattern_L1_9)"/></g></svg>